<?xml version="1.0" encoding="UTF-8"?>
<!DOCTYPE svg PUBLIC "-//W3C//DTD SVG 1.1//EN" "http://www.w3.org/Graphics/SVG/1.1/DTD/svg11.dtd">
<svg version="1.1" xmlns="http://www.w3.org/2000/svg" xmlns:xlink="http://www.w3.org/1999/xlink" x="0" y="0" width="296" height="472" viewBox="0, 0, 296, 472">
  <defs>
    <linearGradient id="Gradient_1" gradientUnits="userSpaceOnUse" x1="148.121" y1="505.483" x2="148.121" y2="307.794">
      <stop offset="0" stop-color="#FFFFFE"/>
      <stop offset="1" stop-color="#1B1A19"/>
    </linearGradient>
  </defs>
  <g id="Layer_1">
    <path d="M281.977,433.808 C301.903,440.837 295.828,450.35 268.882,455.615 C270.178,455.741 271.33,455.966 272.149,456.272 C273.724,456.875 273.535,457.622 271.915,458.171 C272.401,458.252 272.833,458.36 273.175,458.486 C274.507,458.99 273.949,459.656 271.96,460.007 L274.174,460.763 C275.281,461.141 274.912,461.672 273.355,461.942 C271.789,462.212 269.629,462.122 268.522,461.744 L266.119,460.916 L265.93,460.952 C263.779,461.285 260.926,461.132 259.549,460.61 C259.207,460.475 258.991,460.34 258.883,460.196 C256.165,460.322 253.285,460.052 251.701,459.449 C250.639,459.044 250.378,458.576 250.81,458.144 C240.388,459.107 229.318,459.404 218.608,459.071 L218.608,463.508 C217.617,467.924 205.777,468.426 202.686,468.515 L90.81,468.515 C86.824,468.388 82.734,468.041 78.937,466.724 C77.369,466.18 75.224,465.364 74.896,463.508 L74.896,459.485 C64.681,459.701 54.205,459.35 44.323,458.378 C45.07,458.864 44.908,459.422 43.684,459.89 C42.1,460.484 39.211,460.763 36.493,460.628 C36.394,460.772 36.178,460.916 35.836,461.042 C34.459,461.564 31.597,461.717 29.446,461.384 L27.7,461.978 C26.593,462.356 24.424,462.446 22.867,462.176 C21.301,461.906 20.941,461.384 22.048,461.006 L23.596,460.475 C21.454,460.133 20.833,459.44 22.201,458.918 C22.543,458.792 22.975,458.684 23.47,458.603 C21.841,458.054 21.652,457.307 23.236,456.704 C24.235,456.326 25.747,456.083 27.403,455.975 C1.159,450.872 -5.555,441.665 12.94,434.618 L125.314,452.06 C116.467,455.426 103.336,457.73 88.765,458.819 L88.765,463.508 C88.765,464.525 91.051,465.2 92.572,465.2 L200.923,465.2 C202.444,465.2 204.739,464.525 204.739,463.508 L204.739,458.261 C191.968,457.163 180.448,455.111 172.177,452.186 L281.977,433.808 z M58.66,377.207 C61.144,377.207 63.16,377.702 63.16,378.305 C63.16,378.422 63.07,378.53 62.935,378.638 L72.7,382.058 C74.572,381.986 76.507,382.202 77.443,382.634 C77.74,382.769 77.911,382.913 77.965,383.057 C80.71,382.985 83.5,383.318 84.877,383.948 C85.921,384.425 85.912,384.974 85.039,385.433 C103.597,383.156 124.567,381.86 146.752,381.86 C168.388,381.86 188.863,383.093 207.079,385.271 C206.494,384.848 206.593,384.371 207.52,383.948 C208.888,383.318 211.678,382.985 214.432,383.057 C214.486,382.913 214.648,382.769 214.945,382.634 C216.016,382.148 218.356,381.932 220.453,382.094 L229.813,378.818 C229.678,378.71 229.588,378.602 229.588,378.485 C229.588,377.882 231.604,377.396 234.088,377.396 C236.581,377.396 238.597,377.882 238.597,378.485 C238.597,379.007 237.112,379.439 235.132,379.547 L228.445,383.165 C229.822,383.507 230.209,384.038 229.246,384.479 C228.949,384.614 228.553,384.731 228.094,384.821 C229.894,385.334 230.344,386.081 228.967,386.711 C227.833,387.224 225.754,387.539 223.513,387.602 C259.828,393.596 283.723,403.712 283.723,415.169 C283.723,433.106 225.115,447.767 152.026,448.442 L149.848,453.374 L157.741,453.374 C161.791,453.374 165.067,454.166 165.067,455.147 C165.067,456.137 161.791,456.938 157.741,456.938 L135.754,456.938 C131.713,456.938 128.428,456.137 128.428,455.147 C128.428,454.166 131.713,453.374 135.754,453.374 L143.647,453.374 L141.478,448.442 C68.38,447.767 9.772,433.106 9.772,415.169 C9.772,403.721 33.667,393.596 69.955,387.602 C67.336,387.638 64.735,387.314 63.421,386.711 C62.053,386.081 62.494,385.334 64.294,384.821 C63.835,384.731 63.439,384.614 63.142,384.479 C62.071,383.984 62.665,383.39 64.438,383.057 L57.616,379.367 C55.636,379.259 54.151,378.827 54.151,378.305 C54.151,377.702 56.176,377.207 58.66,377.207 z" fill="url(#Gradient_1)"/>
    <path d="M102.667,230.001 C102.91,231.25 102.101,232.463 100.853,232.716 C100.689,232.752 100.54,232.762 100.39,232.762 C99.314,232.762 98.343,232.001 98.124,230.902 C97.88,229.654 98.689,228.428 99.939,228.186 C101.199,227.932 102.413,228.74 102.667,230.001 M180.25,189.787 C179.672,189.787 179.083,189.567 178.632,189.115 C177.719,188.215 177.719,186.758 178.621,185.844 C179.51,184.944 180.98,184.944 181.88,185.834 C182.793,186.735 182.793,188.203 181.892,189.105 C181.441,189.567 180.852,189.787 180.25,189.787 M155.526,176.863 C154.267,176.621 153.445,175.408 153.687,174.147 C153.931,172.899 155.144,172.078 156.405,172.32 C157.653,172.564 158.473,173.777 158.231,175.037 C158.01,176.135 157.052,176.899 155.964,176.899 C155.815,176.899 155.665,176.886 155.526,176.863 M162.913,265.787 C162.416,264.597 162.982,263.245 164.149,262.759 C165.329,262.272 166.692,262.828 167.177,264.007 C167.663,265.186 167.108,266.539 165.929,267.024 C165.64,267.151 165.339,267.209 165.04,267.209 C164.137,267.209 163.271,266.666 162.913,265.787 M100.886,202.201 C101.372,201.022 102.724,200.456 103.902,200.941 C105.083,201.426 105.648,202.779 105.164,203.958 C104.792,204.848 103.937,205.392 103.025,205.392 C102.736,205.392 102.435,205.334 102.146,205.217 C100.967,204.732 100.4,203.38 100.886,202.19 L100.886,202.201 z M189.695,200.664 C190.874,200.177 192.226,200.733 192.723,201.901 C193.219,203.08 192.666,204.443 191.486,204.928 C191.197,205.057 190.897,205.113 190.595,205.113 C189.695,205.113 188.828,204.583 188.458,203.692 C187.972,202.512 188.528,201.161 189.695,200.664 M163.975,179.395 C162.796,178.91 162.231,177.558 162.715,176.378 C163.202,175.188 164.553,174.633 165.733,175.119 C166.912,175.604 167.477,176.956 166.993,178.134 C166.633,179.025 165.767,179.569 164.855,179.569 C164.566,179.569 164.264,179.51 163.975,179.395 M174.344,179.684 L174.333,179.684 C175.396,180.39 175.684,181.822 174.98,182.885 C174.541,183.557 173.8,183.915 173.061,183.915 C172.622,183.915 172.17,183.799 171.778,183.533 C170.714,182.828 170.425,181.395 171.13,180.332 C171.835,179.268 173.269,178.979 174.344,179.684 M192.862,209.414 C194.11,209.16 195.334,209.968 195.589,211.216 C195.843,212.466 195.035,213.691 193.775,213.945 C193.625,213.967 193.474,213.992 193.312,213.992 C192.238,213.992 191.279,213.229 191.058,212.131 C190.804,210.882 191.614,209.656 192.862,209.414 M184.885,192.711 C185.937,191.995 187.382,192.284 188.087,193.335 C188.804,194.399 188.528,195.833 187.475,196.549 C187.071,196.815 186.62,196.942 186.18,196.942 C185.441,196.942 184.712,196.584 184.261,195.924 C183.545,194.861 183.823,193.427 184.885,192.711 M115.045,253.038 L115.035,253.038 C115.948,253.938 115.948,255.396 115.045,256.309 C114.595,256.759 114.005,256.991 113.404,256.991 C112.816,256.991 112.226,256.759 111.775,256.309 C110.874,255.407 110.874,253.951 111.775,253.038 C112.676,252.136 114.132,252.136 115.045,253.038 M114.896,186.052 C115.81,186.943 115.81,188.412 114.908,189.325 C114.458,189.775 113.868,189.995 113.267,189.995 C112.676,189.995 112.086,189.775 111.636,189.325 C110.734,188.423 110.734,186.966 111.625,186.052 C112.527,185.151 113.995,185.151 114.896,186.052 M121.877,258.633 C122.941,259.349 123.23,260.782 122.513,261.846 C122.075,262.505 121.333,262.875 120.595,262.875 C120.156,262.875 119.705,262.747 119.312,262.48 C118.249,261.776 117.958,260.342 118.675,259.279 C119.38,258.216 120.814,257.926 121.877,258.633 M135.216,175.107 C134.962,173.858 135.771,172.633 137.032,172.379 C138.279,172.135 139.494,172.945 139.749,174.193 C140.002,175.442 139.181,176.668 137.933,176.91 C137.783,176.945 137.632,176.956 137.482,176.956 C136.396,176.956 135.437,176.205 135.216,175.107 M122.351,180.481 C123.056,181.545 122.779,182.979 121.715,183.695 C121.323,183.961 120.873,184.088 120.433,184.088 C119.693,184.088 118.953,183.73 118.513,183.07 C117.796,182.008 118.075,180.573 119.138,179.858 C120.202,179.141 121.634,179.429 122.351,180.481 M178.759,256.239 C177.859,255.338 177.859,253.87 178.759,252.968 C179.662,252.067 181.128,252.067 182.031,252.968 C182.932,253.87 182.932,255.338 182.031,256.239 C181.581,256.691 180.991,256.922 180.401,256.922 C179.799,256.922 179.21,256.691 178.759,256.239 M106.111,196.802 C105.047,196.098 104.758,194.665 105.463,193.601 C106.181,192.538 107.613,192.249 108.677,192.954 C109.741,193.659 110.029,195.091 109.312,196.155 C108.874,196.826 108.133,197.195 107.394,197.195 C106.955,197.195 106.503,197.069 106.111,196.802 M171.303,261.788 C170.587,260.736 170.876,259.292 171.94,258.586 C172.992,257.869 174.436,258.158 175.141,259.221 C175.858,260.274 175.569,261.718 174.505,262.424 C174.113,262.688 173.673,262.817 173.222,262.817 C172.483,262.817 171.754,262.458 171.303,261.788 M130.732,176.482 C131.228,177.65 130.673,179.002 129.495,179.5 C129.207,179.626 128.906,179.684 128.605,179.684 C127.704,179.684 126.836,179.152 126.466,178.261 C125.98,177.084 126.536,175.731 127.714,175.234 C128.894,174.749 130.247,175.302 130.732,176.482 M191.093,229.908 C191.335,228.648 192.549,227.839 193.809,228.082 C195.058,228.336 195.878,229.549 195.625,230.798 C195.405,231.908 194.445,232.659 193.359,232.659 C193.208,232.659 193.058,232.648 192.908,232.625 C191.66,232.37 190.85,231.156 191.093,229.908 M191.555,237.109 C192.735,237.594 193.29,238.947 192.803,240.127 C192.434,241.016 191.579,241.548 190.666,241.548 C190.376,241.548 190.077,241.49 189.788,241.375 C188.608,240.888 188.042,239.536 188.539,238.358 C189.024,237.178 190.376,236.612 191.555,237.109 M102.631,212.408 C102.413,213.518 101.441,214.279 100.355,214.279 C100.215,214.279 100.066,214.269 99.916,214.234 C98.656,213.992 97.847,212.778 98.088,211.529 C98.332,210.269 99.545,209.46 100.806,209.703 C102.054,209.945 102.875,211.159 102.631,212.408 M146.869,224.869 C144.793,224.869 143.111,223.187 143.111,221.112 C143.111,219.037 144.793,217.355 146.869,217.355 C148.943,217.355 150.625,219.037 150.625,221.112 C150.625,223.187 148.943,224.869 146.869,224.869 M193.059,218.945 C189.594,218.72 185.978,218.54 182.352,218.338 C180.2,218.218 178.046,218.048 175.926,217.862 C173.807,217.67 171.722,217.529 169.704,217.5 C165.667,217.481 161.899,217.882 158.668,218.328 C157.542,218.485 156.51,218.662 155.526,218.844 C154.908,216.479 153.353,214.495 151.273,213.317 C151.351,213.075 151.437,212.849 151.508,212.599 C151.896,211.321 152.23,209.939 152.48,208.475 C152.756,207.011 152.916,205.468 152.89,203.873 C152.865,202.277 152.599,200.627 152.291,198.951 C151.97,197.275 151.693,195.572 151.493,193.87 C151.296,192.167 151.103,190.465 150.911,188.789 C150.736,187.112 150.486,185.463 150.265,183.867 C150.035,182.271 149.841,180.728 149.605,179.264 C149.375,177.8 149.16,176.418 148.959,175.141 C148.927,174.942 148.896,174.752 148.866,174.56 C148.968,174.296 149.029,174.009 149.029,173.708 C149.029,173.143 148.816,172.632 148.474,172.231 C147.881,168.784 147.447,166.627 147.447,166.627 L146.291,166.627 C146.291,166.627 145.884,168.641 145.322,171.885 C144.769,172.311 144.406,172.976 144.406,173.731 C144.406,174.205 144.55,174.645 144.798,175.009 L144.777,175.141 C144.578,176.418 144.361,177.8 144.132,179.264 C143.896,180.728 143.703,182.271 143.472,183.867 C143.251,185.463 143,187.112 142.827,188.789 C142.634,190.465 142.439,192.167 142.245,193.87 C142.044,195.572 141.767,197.275 141.447,198.951 C141.138,200.627 140.873,202.277 140.847,203.873 C140.822,205.468 140.98,207.011 141.257,208.475 C141.506,209.939 141.84,211.321 142.228,212.599 C142.3,212.849 142.385,213.075 142.463,213.317 C139.747,214.855 137.911,217.767 137.911,221.112 C137.911,226.06 141.92,230.07 146.869,230.07 C151.032,230.07 154.521,227.227 155.526,223.379 C156.51,223.562 157.542,223.738 158.668,223.897 C161.899,224.341 165.667,224.743 169.704,224.725 C171.722,224.694 173.807,224.553 175.926,224.361 C178.046,224.175 180.2,224.005 182.352,223.885 C186.098,223.676 189.833,223.492 193.401,223.256 C193.667,223.362 193.956,223.424 194.26,223.424 C194.667,223.424 195.042,223.31 195.375,223.126 C199.268,222.879 202.908,222.59 206.036,222.347 C212.495,221.873 216.8,221.459 216.8,221.459 L216.8,220.766 C216.8,220.766 212.495,220.351 206.036,219.877 C202.999,219.641 199.475,219.362 195.71,219.121 C195.31,218.798 194.805,218.598 194.249,218.604 C193.812,218.604 193.408,218.732 193.059,218.945 M99.476,218.904 C100.748,218.892 101.789,219.933 101.789,221.204 C101.789,222.487 100.759,223.516 99.476,223.528 C98.205,223.528 97.165,222.487 97.165,221.216 C97.165,219.933 98.193,218.904 99.476,218.904 M107.509,249.824 C106.758,249.824 106.031,249.466 105.58,248.796 C104.875,247.744 105.152,246.299 106.214,245.593 C107.279,244.877 108.711,245.166 109.417,246.217 C110.133,247.281 109.857,248.715 108.792,249.431 C108.4,249.697 107.949,249.824 107.509,249.824 M139.945,268.052 C139.724,269.162 138.765,269.925 137.679,269.925 C137.529,269.925 137.378,269.914 137.228,269.879 C135.98,269.636 135.159,268.423 135.414,267.163 C135.656,265.915 136.87,265.093 138.118,265.347 C139.378,265.591 140.187,266.805 139.945,268.052 M146.925,270.816 C145.644,270.816 144.603,269.775 144.603,268.504 C144.603,267.232 145.644,266.192 146.915,266.192 C148.198,266.192 149.226,267.22 149.226,268.504 C149.226,269.775 148.198,270.816 146.925,270.816 M103.996,241.466 C103.707,241.583 103.407,241.64 103.105,241.64 C102.205,241.64 101.337,241.109 100.967,240.219 C100.482,239.04 101.037,237.687 102.215,237.202 C103.394,236.705 104.748,237.259 105.232,238.438 C105.73,239.618 105.174,240.969 103.996,241.466 M129.667,262.794 C130.847,263.279 131.415,264.631 130.929,265.81 C130.558,266.7 129.691,267.244 128.791,267.244 C128.49,267.244 128.189,267.185 127.9,267.07 C126.72,266.574 126.167,265.221 126.652,264.053 C127.136,262.863 128.49,262.307 129.667,262.794 M188.215,248.715 C187.764,249.374 187.037,249.743 186.285,249.743 C185.845,249.743 185.394,249.617 185.001,249.35 C183.937,248.633 183.661,247.2 184.366,246.136 C185.071,245.073 186.515,244.797 187.568,245.501 C188.631,246.217 188.919,247.651 188.215,248.715 M153.884,268.041 C153.642,266.793 154.452,265.568 155.71,265.325 C156.959,265.071 158.172,265.891 158.427,267.139 C158.67,268.387 157.861,269.614 156.613,269.855 C156.451,269.891 156.3,269.902 156.163,269.902 C155.075,269.902 154.105,269.139 153.884,268.041 M146.002,160.266 L141.741,155.315 L141.741,117.646 L142.626,118.071 L142.626,155.052 L147.904,161.151 L131.119,161.151 L130.398,160.266 L146.002,160.266 z M125.086,122.203 C125.086,121.11 125.599,120.543 126.626,120.498 C127.545,120.455 128.004,120.87 128.004,121.744 C128.004,121.897 127.982,122.05 127.939,122.203 C127.917,122.313 127.907,122.389 127.907,122.433 C127.926,122.781 128.222,122.957 128.792,122.957 C130.234,122.957 131.654,122.399 133.052,121.285 C134.452,120.17 135.5,118.76 136.201,117.056 L140.101,117.056 L140.101,155.052 L144.101,158.462 L129.972,158.462 L134.134,155.052 L134.134,126.203 C132.868,126.858 131.588,127.187 130.299,127.187 C128.288,127.187 126.736,126.367 125.644,124.727 L125.907,124.727 C127.238,125.82 128.681,126.367 130.234,126.367 C131.698,126.367 132.999,125.985 134.134,125.218 L134.134,123.187 C132.648,124.279 130.911,124.826 128.921,124.826 C127.829,124.826 126.917,124.575 126.185,124.071 C125.453,123.569 125.086,122.945 125.086,122.203 M122.123,166.675 L117.861,161.725 L117.861,124.056 L118.746,124.482 L118.746,161.463 L124.023,167.561 L107.238,167.561 L106.517,166.675 L122.123,166.675 z M106.418,133.595 C104.408,133.595 102.857,132.777 101.763,131.136 L102.025,131.136 C103.359,132.23 104.8,132.777 106.353,132.777 C107.816,132.777 109.119,132.395 110.254,131.629 L110.254,129.595 C108.767,130.689 107.031,131.235 105.042,131.235 C103.949,131.235 103.037,130.985 102.304,130.481 C101.572,129.979 101.207,129.356 101.207,128.612 C101.207,127.52 101.72,126.953 102.748,126.908 C103.665,126.864 104.125,127.279 104.125,128.154 C104.125,128.307 104.103,128.461 104.058,128.612 C104.037,128.723 104.025,128.799 104.025,128.841 C104.046,129.192 104.342,129.367 104.912,129.367 C106.353,129.367 107.775,128.81 109.172,127.695 C110.57,126.58 111.621,125.171 112.32,123.466 L116.222,123.466 L116.222,161.463 L120.222,164.873 L106.091,164.873 L110.254,161.463 L110.254,132.612 C108.988,133.269 107.708,133.595 106.418,133.595 M82.525,171.185 C85.39,171.185 87.652,172.475 89.312,175.052 L88.82,175.348 C87.16,173.185 85.005,172.103 82.361,172.103 C79.673,172.103 77.724,173.442 76.51,176.119 C75.297,178.796 74.69,183.107 74.69,189.051 C74.69,194.254 75.227,198.243 76.297,201.018 C77.368,203.794 79.071,205.597 81.412,206.426 L81.412,206.755 C79.793,206.493 78.274,205.509 76.854,203.804 C74.842,201.335 73.838,196.232 73.838,188.495 C73.838,182.397 74.521,177.987 75.888,175.266 C77.252,172.545 79.465,171.185 82.525,171.185 M77.231,211.689 C75.581,211.023 73.793,209.849 71.872,208.165 L72.167,207.936 C75.356,210.558 78.842,211.87 82.625,211.87 C88.154,211.87 92.47,209.87 95.575,205.87 C98.677,201.87 100.23,196.309 100.23,189.183 C100.23,183.959 99.448,179.643 97.885,176.233 C96.323,172.823 93.914,170.156 90.657,168.234 L90.657,167.939 C93.978,169.403 96.562,171.966 98.411,175.626 C100.256,179.288 101.181,183.675 101.181,188.79 C101.181,197.358 99.181,203.674 95.181,207.738 C91.945,211.039 87.902,212.689 83.05,212.689 C80.82,212.689 78.881,212.356 77.231,211.689 M61.758,206.591 L67.037,212.689 L50.25,212.689 L49.529,211.804 L65.135,211.804 L60.874,206.854 L60.874,169.185 L61.758,169.611 L61.758,206.591 z M70.292,216.111 L70.292,215.751 C76.521,219.139 79.635,225.356 79.635,234.404 C79.635,243.65 76.586,251.386 70.488,257.615 C67.843,260.347 64.816,262.49 61.408,264.041 C57.998,265.593 54.631,266.368 51.311,266.368 L50.458,266.337 L50.229,265.549 C55.474,265.549 60.357,264.051 64.882,261.058 C69.23,258.216 72.63,254.453 75.079,249.763 C77.525,245.077 78.75,239.988 78.75,234.504 C78.75,225.695 75.931,219.565 70.292,216.111 M55.244,228.078 C55.244,230.634 55.73,232.798 56.703,234.569 C57.674,236.339 59.002,237.475 60.687,237.978 L60.687,238.207 C58.741,237.88 57.188,236.793 56.03,234.945 C54.873,233.1 54.293,230.788 54.293,228.011 C54.293,224.82 54.904,222.345 56.128,220.586 C57.354,218.827 59.08,217.946 61.31,217.946 C62.751,217.946 64.101,218.374 65.357,219.226 C66.615,220.078 67.57,221.215 68.227,222.634 C66.128,220.123 63.845,218.864 61.375,218.864 C57.288,218.864 55.244,221.936 55.244,228.078 M60.652,213.783 C65.375,213.783 69.227,215.701 72.209,219.538 C75.192,223.373 76.685,228.329 76.685,234.404 C76.685,239.737 75.532,244.638 73.226,249.108 C70.919,253.579 67.703,257.146 63.57,259.812 C59.396,262.522 55.015,263.878 50.424,263.878 C49.091,263.878 48.424,263.528 48.424,262.828 C48.424,262.239 48.904,261.889 49.868,261.778 C55.375,261.167 59.829,259.036 63.227,255.387 C66.625,251.736 68.85,246.711 69.898,240.306 C67.209,243.387 63.658,244.927 59.244,244.927 C57.363,244.927 55.561,244.522 53.833,243.716 C52.107,242.907 50.807,241.845 49.933,240.534 L49.965,240.306 C51.713,242.797 54.764,244.043 59.112,244.043 C63.964,244.043 67.689,242.164 70.292,238.405 C70.4,236.678 70.456,235.04 70.456,233.487 C70.456,228.023 69.833,224.057 68.586,221.586 C67.755,219.946 66.599,218.634 65.111,217.652 C63.625,216.668 62.063,216.176 60.423,216.176 C57.889,216.176 55.883,217.209 54.408,219.275 C52.933,221.34 52.194,224.132 52.194,227.651 C52.194,231.061 52.971,233.755 54.522,235.732 C56.075,237.71 58.183,238.699 60.851,238.699 C64.785,238.699 67.145,236.82 67.932,233.061 L68.193,231.716 C68.304,231.214 68.576,230.963 69.014,230.963 C69.712,230.963 70.063,231.564 70.063,232.766 C70.063,235.433 68.985,237.678 66.833,239.503 C64.681,241.327 62.042,242.241 58.917,242.241 C55.2,242.241 52.146,240.999 49.752,238.52 C47.358,236.039 46.163,232.884 46.163,229.061 C46.163,224.755 47.557,221.132 50.342,218.193 C53.128,215.254 56.566,213.783 60.652,213.783 M79.183,265.477 C79.183,266.942 79.707,268.111 80.755,268.985 L80.559,269.215 C79.095,267.99 78.362,266.603 78.362,265.05 C78.362,263.368 79.694,261.631 82.361,259.838 L82.361,260.887 C80.242,262.352 79.183,263.882 79.183,265.477 M74.035,287.934 C74.035,283.454 76.526,279.978 81.509,277.509 L84.754,278.558 C79.095,280.482 76.265,283.706 76.265,288.229 C76.265,290.021 76.733,291.712 77.673,293.295 C78.612,294.88 79.892,296.131 81.509,297.049 L81.509,296.786 C78.56,294.316 77.083,291.508 77.083,288.361 C77.083,284.272 79.958,281.127 85.707,278.919 L86.33,279.147 C89.892,280.548 92.498,282.132 94.148,283.902 C95.798,285.672 96.624,287.77 96.624,290.196 C96.624,292.797 95.743,294.851 93.984,296.36 C92.224,297.868 89.826,298.622 86.789,298.622 C82.898,298.622 79.799,297.654 77.494,295.721 C75.188,293.786 74.035,291.191 74.035,287.934 M97.458,297.508 C100.376,295.234 101.835,292.284 101.835,288.655 C101.835,286.076 101.115,283.678 99.672,281.46 C98.23,279.241 96.208,277.432 93.607,276.034 C95.662,275.115 97.333,273.794 98.624,272.066 C99.913,270.341 100.558,268.569 100.558,266.756 C100.558,263.739 99.267,261.434 96.689,259.838 C96.82,260.013 96.917,260.133 96.984,260.199 C98.165,261.772 98.922,262.926 99.263,263.658 C99.601,264.39 99.771,265.292 99.771,266.362 C99.771,270.275 97.454,273.367 92.82,275.64 C92.624,275.553 92.502,275.498 92.459,275.476 L90.918,274.821 C90.896,274.799 90.754,274.733 90.493,274.625 C93.181,273.159 95.093,271.728 96.23,270.329 C97.366,268.93 97.935,267.324 97.935,265.51 C97.935,263.302 97.043,261.434 95.263,259.903 C93.48,258.374 91.312,257.608 88.754,257.608 C87.072,257.608 85.667,258.041 84.542,258.903 C83.416,259.768 82.853,260.834 82.853,262.1 C82.853,263.193 83.193,263.739 83.871,263.739 C84.22,263.739 84.525,263.424 84.789,262.789 C85.576,260.974 87.05,260.068 89.213,260.068 C90.875,260.068 92.279,260.588 93.426,261.626 C94.574,262.664 95.148,263.925 95.148,265.412 C95.148,268.974 92.611,271.509 87.542,273.018 C85.99,272.602 84.285,271.947 82.427,271.05 C80.199,269.979 78.658,268.992 77.805,268.083 C76.953,267.177 76.526,266.067 76.526,264.757 C76.526,262.352 78.079,260.254 81.182,258.461 L85.181,256.133 C89.116,253.861 91.083,251.774 91.083,249.872 C91.083,249.106 90.841,248.419 90.361,247.806 C89.88,247.195 89.345,246.888 88.754,246.888 C87.552,246.888 86.952,247.524 86.952,248.791 C86.952,249.555 87.203,250.047 87.706,250.265 L88.198,250.495 C88.373,250.56 88.459,250.681 88.459,250.854 C88.48,251.118 88.251,251.413 87.771,251.741 L86.755,252.495 C85.554,253.39 83.707,254.494 81.214,255.805 C77.39,257.817 74.772,259.62 73.362,261.216 C71.954,262.81 71.249,264.766 71.249,267.084 C71.249,270.733 73.925,273.716 79.28,276.034 L78.658,276.296 C75.095,277.891 72.51,279.63 70.903,281.508 C69.297,283.388 68.495,285.595 68.495,288.131 C68.495,291.868 70.145,294.934 73.444,297.327 C76.745,299.721 80.974,300.917 86.132,300.917 C90.765,300.917 94.542,299.78 97.458,297.508 M102.853,282.967 C103.835,284.815 104.328,286.798 104.328,288.918 C104.328,293.245 102.693,296.742 99.426,299.409 C96.159,302.075 91.857,303.409 86.525,303.409 C81.346,303.409 77.226,302.063 74.167,299.376 L74.167,299.212 L74.658,299.54 C76.362,300.633 78.104,301.409 79.887,301.868 C81.667,302.327 83.849,302.555 86.427,302.555 C91.585,302.555 95.716,301.299 98.82,298.786 C101.922,296.271 103.476,292.907 103.476,288.688 C103.476,285.891 102.623,283.442 100.917,281.345 L99.376,279.443 C99.355,279.422 99.256,279.28 99.083,279.016 C100.611,279.803 101.869,281.122 102.853,282.967 M86.166,264.558 L85.673,264.558 C86.613,262.658 88.099,261.708 90.131,261.708 C92.099,261.708 93.552,262.658 94.493,264.558 L94.197,264.558 C92.952,263.225 91.595,262.559 90.131,262.559 C88.382,262.559 87.062,263.225 86.166,264.558 M92.23,250.724 C92.23,249.806 91.847,248.779 91.083,247.642 L91.411,247.347 C92.546,248.396 93.115,249.501 93.115,250.659 C93.115,252.843 91.562,254.91 88.459,256.854 L88.131,257.052 L86.82,257.052 C90.426,254.91 92.23,252.8 92.23,250.724 M111.222,281.361 L138.4,281.361 C137.941,285.338 136.443,289.71 133.909,294.474 L130.793,300.343 C127.691,306.178 126.14,312.866 126.14,320.407 L126.205,322.767 L117.418,322.767 C117.418,320.865 117.823,318.319 118.631,315.129 C119.833,310.32 122.642,304.911 127.056,298.9 L131.154,293.327 C131.984,292.19 132.816,290.737 133.646,288.967 L115.648,288.967 L115.648,290.31 C115.648,294.66 114.128,296.835 111.09,296.835 C110.019,296.835 109.037,296.496 108.14,295.819 L109.616,295.819 C110.119,295.993 110.578,296.081 110.993,296.081 C113.527,296.081 114.795,294.256 114.795,290.605 L114.829,289.261 L114.829,288.114 L134.006,288.114 L134.17,287.754 C134.412,287.207 134.552,286.748 134.597,286.377 L112.926,286.377 L112.926,287.786 C112.926,292.332 111.823,294.604 109.616,294.604 C108.959,294.604 108.402,294.442 107.943,294.113 C107.484,293.786 107.254,293.392 107.254,292.933 C107.254,291.883 107.736,291.36 108.698,291.36 C109.068,291.36 109.429,291.512 109.779,291.818 C109.976,292.016 110.15,292.114 110.304,292.114 C110.894,292.114 111.189,291.271 111.189,289.589 L111.222,287.786 L111.222,281.361 z M172.461,287.369 C173.916,288.854 175.025,290.384 175.79,291.959 L175.397,292.122 C173.057,293.018 171.756,293.52 171.496,293.631 L167.298,295.597 L167.037,295.728 L166.675,295.073 C169.014,293.674 171.669,292.483 174.642,291.499 C173.417,289.095 171.288,286.768 168.25,284.516 L168.25,284.287 C169.605,284.854 171.008,285.882 172.461,287.369 M151.333,310.678 C151.312,311.006 151.3,311.214 151.3,311.3 C151.3,317.29 153.748,321.135 158.643,322.841 L158.939,322.94 L158.939,323.169 C156.534,323.169 154.523,322.004 152.907,319.677 C151.289,317.348 150.48,314.459 150.48,311.006 C150.48,310.787 150.501,310.373 150.545,309.759 C150.808,309.825 151.135,309.859 151.529,309.859 C152.337,309.859 152.894,309.334 153.202,308.284 L153.497,307.268 C154.632,303.509 156.468,301.63 159.004,301.63 C160.491,301.63 161.839,302.237 163.053,303.449 C164.266,304.663 165.081,306.209 165.496,308.088 L165.265,308.088 C163.342,304.329 161.211,302.45 158.874,302.45 C156.623,302.45 155.091,304.142 154.284,307.53 C153.758,309.651 152.884,310.712 151.661,310.712 C151.595,310.712 151.486,310.7 151.333,310.678 M168.906,300.678 C171.244,303.367 172.414,306.919 172.414,311.334 C172.414,315.857 171.101,319.519 168.48,322.317 C165.856,325.114 162.424,326.512 158.184,326.512 C153.31,326.512 149.476,324.688 146.677,321.038 C145.234,319.158 144.076,316.738 143.203,313.777 C142.328,310.815 141.892,307.826 141.892,304.81 C141.892,298.383 143.525,293.056 146.792,288.827 C150.06,284.598 154.163,282.484 159.102,282.484 C161.965,282.484 164.496,283.172 166.692,284.549 C168.888,285.926 170.566,287.883 171.724,290.418 L171.397,290.549 L169.626,291.401 C167.791,292.362 166.402,293.182 165.462,293.859 C165.441,293.641 165.43,293.477 165.43,293.368 C165.014,287.904 162.622,285.172 158.25,285.172 C156.894,285.172 155.556,285.588 154.234,286.418 C152.912,287.248 151.845,288.363 151.038,289.761 C149.202,292.931 148.285,298.438 148.285,306.285 C148.285,312.601 149.07,317.083 150.644,319.727 C152.349,322.59 154.676,324.021 157.626,324.021 C160.184,324.021 162.303,322.775 163.988,320.284 C165.67,317.793 166.512,314.667 166.512,310.908 C166.512,307.367 165.824,304.591 164.447,302.581 C163.07,300.57 161.168,299.563 158.742,299.563 C156.884,299.563 155.353,300.165 154.152,301.367 C152.95,302.569 152.164,304.285 151.792,306.514 C151.617,307.63 151.222,308.186 150.611,308.186 C149.65,308.186 149.168,307.552 149.168,306.285 C149.168,303.575 150.179,301.292 152.202,299.433 C154.222,297.575 156.72,296.646 159.693,296.646 C163.496,296.646 166.566,297.991 168.906,300.678 M164.643,291.27 L164.38,291.073 L163.037,289.696 C161.857,288.494 160.458,287.893 158.839,287.893 C157.004,287.893 155.452,288.68 154.185,290.254 C153.091,291.608 152.195,294.351 151.497,298.483 L151.431,298.777 L150.545,299.826 C151.246,291.324 153.976,287.074 158.742,287.074 C160.12,287.074 161.365,287.472 162.48,288.27 C163.594,289.069 164.316,290.067 164.643,291.27 M194.66,287.8 C193.064,287.8 191.697,288.118 190.561,288.752 C189.424,289.385 188.189,290.521 186.856,292.162 L186.134,291.767 C188.211,288.621 191.074,287.047 194.724,287.047 C198.309,287.047 200.91,288.752 202.528,292.162 L202.265,292.162 L201.905,291.67 C199.937,289.091 197.522,287.8 194.66,287.8 M189.183,298.292 C188.965,299.537 188.857,300.597 188.857,301.472 C188.857,303.176 189.352,304.674 190.348,305.964 C191.342,307.253 192.712,308.181 194.461,308.75 L194.461,309.143 C192.516,308.859 190.943,307.969 189.742,306.471 C188.54,304.974 187.937,303.155 187.937,301.012 C187.937,300.116 188.081,299.133 188.365,298.062 L189.183,298.292 z M227.552,215.195 C228.536,214.594 229.29,213.825 229.815,212.884 L230.569,213.344 C229.082,215.705 227.093,216.884 224.602,216.884 C222.81,216.884 221.073,216.022 219.389,214.295 L219.193,214.131 L219.193,213.935 C219.368,214.044 219.465,214.11 219.488,214.131 L220.602,214.951 C221.585,215.716 222.885,216.099 224.503,216.099 C225.552,216.099 226.569,215.798 227.552,215.195 M225.847,229.147 C225.607,231.026 225.487,232.272 225.487,232.883 C225.487,236.052 226.832,238.338 229.521,239.735 L229.521,240.063 C228.054,239.649 226.865,238.772 225.947,237.441 C225.028,236.108 224.57,234.567 224.57,232.818 C224.57,231.856 224.721,230.589 225.028,229.016 L225.06,228.786 L225.88,228.786 C225.859,228.961 225.847,229.081 225.847,229.147 M227.028,205.919 C226.11,206.695 225.651,207.694 225.651,208.918 C225.651,209.793 226.055,210.514 226.865,211.083 L226.996,211.213 L226.634,211.737 C225.344,211.192 224.701,210.23 224.701,208.853 C224.701,207.455 225.251,206.285 226.356,205.344 C227.458,204.405 228.841,203.936 230.503,203.936 C232.273,203.936 233.792,204.373 235.06,205.247 C236.327,206.121 237.224,207.344 237.749,208.918 L237.454,208.918 L237.159,208.493 C235.387,206.001 233.18,204.755 230.536,204.755 C229.115,204.755 227.946,205.144 227.028,205.919 M227.914,223.311 L227.651,222.458 C228.983,222.131 230.109,221.966 231.028,221.966 C234.261,221.966 236.514,223.104 237.782,225.376 L237.584,225.376 C235.858,223.672 233.662,222.819 230.995,222.819 C229.88,222.819 228.941,222.95 228.175,223.212 L227.914,223.311 z M242.24,202.034 C243.551,202.362 244.715,203.361 245.731,205.034 C246.749,206.706 247.256,208.447 247.256,210.262 C247.256,212.514 246.535,214.541 245.092,216.343 C243.65,218.147 241.847,219.278 239.683,219.737 L239.027,219.082 C241.256,218.469 243.038,217.372 244.371,215.787 C245.704,214.202 246.371,212.394 246.371,210.361 C246.371,207.542 245.081,204.853 242.502,202.296 C242.437,202.252 242.349,202.165 242.24,202.034 M157.418,122.414 C156.292,123.376 155.73,124.556 155.73,125.954 C155.73,127.856 156.724,129.244 158.713,130.118 L158.713,130.544 C157.599,130.348 156.685,129.806 155.975,128.921 C155.265,128.036 154.911,127.003 154.911,125.822 C154.911,124.184 155.539,122.813 156.795,121.709 C158.052,120.606 159.621,120.052 161.5,120.052 C163.73,120.052 165.583,120.73 167.057,122.086 C168.533,123.441 169.269,125.146 169.269,127.2 C167.98,123.048 165.402,120.97 161.533,120.97 C159.915,120.97 158.543,121.452 157.418,122.414 M163.73,130.479 L164.516,130.774 C163.773,133.133 162.723,134.86 161.37,135.953 C160.013,137.047 158.243,137.592 156.058,137.592 C153.195,137.592 150.998,136.369 149.468,133.921 L149.73,133.921 L150.091,134.216 C151.314,135.287 152.32,135.998 153.107,136.347 C153.894,136.696 154.833,136.872 155.926,136.872 C160.297,136.872 162.898,134.739 163.73,130.479 M178.319,150.018 L179.204,150.018 L179.204,160.706 L149.37,160.706 L148.779,159.82 L178.319,159.82 L178.319,150.018 z M176.679,158.017 L146.189,158.017 C146.976,154.477 148.392,151.383 150.435,148.738 C152.48,146.095 155.414,143.57 159.238,141.166 C162.691,139.002 165.007,137.287 166.187,136.02 C168.527,133.44 169.697,130.435 169.697,127.003 C169.697,124.294 168.915,122.163 167.352,120.61 C165.79,119.059 163.642,118.283 160.91,118.283 C158.571,118.283 156.643,118.944 155.124,120.266 C153.605,121.589 152.845,123.266 152.845,125.298 C152.845,126.917 153.326,128.266 154.288,129.348 C155.25,130.429 156.462,130.969 157.926,130.969 C159.369,130.969 160.713,130.315 161.958,129.003 L162.484,129.298 C162.2,131.003 161.429,132.375 160.171,133.413 C158.916,134.451 157.39,134.969 155.598,134.969 C153.085,134.969 151.015,134.189 149.386,132.626 C147.757,131.064 146.943,129.081 146.943,126.675 C146.943,123.484 148.25,120.844 150.861,118.758 C153.472,116.671 156.757,115.627 160.713,115.627 C164.997,115.627 168.615,116.83 171.565,119.233 C174.515,121.637 175.991,124.578 175.991,128.052 C175.991,133.102 172.439,137.592 165.335,141.527 L160.32,144.28 C156.648,146.292 153.718,149.219 151.534,153.067 C151.49,153.133 151.435,153.219 151.37,153.329 L153.468,153.329 C155.151,150.182 158.265,147.374 162.811,144.904 L167.335,142.478 C170.962,140.509 173.602,138.44 175.252,136.265 C176.904,134.09 177.728,131.605 177.728,128.807 C177.728,124.61 175.892,121.124 172.22,118.348 L172.417,118.086 C176.591,120.25 178.678,123.823 178.678,128.807 C178.678,134.51 175.093,139.309 167.925,143.198 L163.434,145.658 C158.625,148.258 155.708,150.816 154.681,153.329 L164.91,153.329 C169.083,153.329 171.86,153.049 173.237,152.493 C174.614,151.936 175.542,150.717 176.024,148.837 L176.679,148.837 L176.679,158.017 z M228.048,202.09 C228.675,201.959 229.331,201.87 230.043,201.87 C230.746,201.87 231.414,201.948 232.052,202.09 L228.048,202.09 z M225.378,244.104 C224.757,243.904 224.151,243.667 223.554,243.406 C223.695,242.972 223.822,242.548 223.939,242.131 C224.544,242.343 225.191,242.52 225.868,242.668 C225.708,243.154 225.543,243.63 225.378,244.104 M220.569,254.999 C218.306,259.009 215.23,263.232 211.339,267.669 L211.143,267.899 L210.268,267.899 C210.136,267.511 209.96,267.112 209.754,266.704 C213.29,262.631 216.443,258.092 219.208,253.08 C221.035,249.77 222.405,246.768 223.336,244.063 C223.905,244.352 224.503,244.604 225.129,244.825 C223.777,248.614 222.256,252.006 220.569,254.999 M223.832,270.127 L223.832,271.897 L210.278,271.897 C210.471,271.341 210.582,270.752 210.608,270.127 L223.832,270.127 z M209.311,271.897 L207.343,271.897 C207.771,271.384 208.071,270.792 208.252,270.127 L209.857,270.127 C209.771,270.742 209.583,271.332 209.311,271.897 M208.297,273.474 C207.204,274.742 205.805,275.573 204.101,275.966 L199.838,276.458 L187.48,276.458 L187.48,284.49 C187.085,284.729 186.66,285.037 186.201,285.408 L185.643,285.834 L185.643,274.72 L196.888,274.72 C200.887,274.72 203.817,274.223 205.674,273.229 C205.948,273.084 206.194,272.921 206.425,272.751 L208.828,272.751 C208.664,272.994 208.5,273.239 208.297,273.474 M209.439,267.078 L209.532,266.969 C209.635,267.285 209.718,267.594 209.782,267.899 L209.439,267.899 L209.439,267.078 z M225.064,200.287 C223.583,200.711 222.284,201.312 221.167,202.09 L207.864,202.09 L208.454,202.976 L220.06,202.976 C219.868,203.151 219.667,203.32 219.488,203.508 C218,205.105 217.258,206.755 217.258,208.46 C217.258,210.209 217.842,211.684 219.012,212.884 C220.18,214.087 221.629,214.688 223.357,214.688 C225.738,214.688 227.333,213.716 228.142,211.771 L227.651,211.508 C227.083,212.033 226.47,212.295 225.815,212.295 C224.875,212.295 224.115,211.929 223.537,211.196 C222.958,210.465 222.667,209.498 222.667,208.295 C222.667,206.416 223.357,204.875 224.733,203.673 C225.038,203.406 225.369,203.183 225.711,202.976 L234.341,202.976 C234.896,203.294 235.421,203.674 235.913,204.132 C237.53,205.64 238.338,207.465 238.338,209.607 C238.338,211.793 237.601,213.58 236.125,214.966 C234.65,216.356 232.765,217.049 230.47,217.049 C229.967,217.049 229.29,217.028 228.437,216.983 L228.142,216.983 L226.865,220.557 L227.224,220.459 C228.798,220.13 229.967,219.966 230.733,219.966 C233.246,219.966 235.36,221.021 237.077,223.13 C238.792,225.239 239.65,227.823 239.65,230.883 C239.65,233.966 238.874,236.364 237.322,238.08 C235.771,239.796 233.606,240.654 230.831,240.654 C225.279,240.654 222.503,237.715 222.503,231.834 C222.503,230.589 222.656,229.311 222.962,227.999 C221.061,229.441 218.745,230.611 216.012,231.507 L215.717,231.605 C216.4,235.132 217.762,237.827 219.798,239.704 L216.356,239.704 C216.356,243.856 215.198,248.823 212.88,254.604 C211.205,258.788 209.306,262.419 207.195,265.509 C206.583,264.865 205.914,264.524 205.183,264.524 C204.133,264.524 203.609,265.027 203.609,266.032 C203.609,267.016 204.112,267.508 205.117,267.508 C205.454,267.508 205.749,267.389 206.003,267.168 C205.572,267.736 205.133,268.29 204.685,268.816 L204.521,269.013 L204.521,269.396 C203.674,269.554 202.499,269.638 200.954,269.638 L182.693,269.638 L182.693,289.603 L184.792,290.883 C187.216,287.124 190.408,285.244 194.364,285.244 C197.402,285.244 199.741,286.249 201.379,288.26 C203.019,290.271 203.838,293.156 203.838,296.915 C203.838,300.959 202.998,304.138 201.314,306.455 C199.63,308.771 197.326,309.93 194.397,309.93 C191.708,309.93 189.626,309.127 188.152,307.521 C186.676,305.914 185.939,303.657 185.939,300.751 C185.939,299.635 186.037,298.467 186.234,297.242 C184.638,298.533 182.234,299.975 179.021,301.57 L178.594,301.799 C179.163,305.144 180.812,307.772 183.545,309.685 C186.277,311.597 189.762,312.552 194.002,312.552 C199.183,312.552 203.276,311.209 206.281,308.52 C209.286,305.833 210.789,302.171 210.789,297.538 C210.789,293.013 209.346,289.363 206.461,286.588 C203.577,283.811 199.773,282.424 195.052,282.424 C192.625,282.424 190.397,282.96 188.365,284.031 L188.365,277.342 L199.741,277.342 C202.931,277.342 205.542,276.643 207.577,275.244 C208.625,274.521 209.4,273.688 209.908,272.751 L223.832,272.751 L223.832,277.865 L219.798,281.11 L233.83,281.11 L229.961,277.668 L229.961,270.127 L232.814,270.127 C233.95,270.127 234.518,270.39 234.518,270.915 L234.453,271.176 L234.223,271.438 C234.071,271.635 233.995,271.931 233.995,272.324 C233.995,273.374 234.694,273.896 236.092,273.896 C236.726,273.896 237.25,273.674 237.666,273.227 C238.081,272.779 238.289,272.216 238.289,271.537 C238.289,270.335 237.797,269.428 236.812,268.816 C235.83,268.205 234.375,267.899 232.454,267.899 L232.454,249.9 L231.568,249.704 L231.568,267.899 L229.961,267.899 L229.961,248.424 L229.338,248.424 C228.267,250.174 226.498,251.834 224.028,253.407 L223.832,253.507 L223.832,267.899 L212.193,267.899 C218.093,261.883 222.661,254.265 225.907,245.063 C227.746,245.609 229.803,245.899 232.11,245.899 C237.268,245.899 241.42,244.604 244.567,242.012 C247.714,239.424 249.288,236.021 249.288,231.801 C249.288,229.879 248.965,228.229 248.322,226.852 C247.676,225.475 246.523,223.945 244.863,222.261 L244.6,222.557 C244.709,222.71 244.797,222.831 244.863,222.918 C246.239,224.775 247.168,226.311 247.649,227.524 C248.129,228.737 248.371,230.163 248.371,231.801 C248.371,235.692 246.833,238.883 243.764,241.375 C240.694,243.866 236.765,245.113 231.978,245.113 C229.927,245.113 227.988,244.842 226.148,244.331 C226.318,243.834 226.482,243.329 226.643,242.825 C227.962,243.056 229.398,243.177 230.962,243.177 C235.835,243.177 239.655,242.096 242.42,239.932 C245.185,237.768 246.568,234.764 246.568,230.917 C246.568,225.016 243.398,221.07 237.06,219.082 C236.622,218.929 236.393,218.743 236.372,218.524 C236.349,218.349 236.612,218.186 237.159,218.033 C239.387,217.487 241.158,216.432 242.468,214.869 C243.781,213.307 244.437,211.476 244.437,209.377 C244.437,206.492 243.196,204.127 240.715,202.279 C239.972,201.727 239.158,201.267 238.288,200.879 L238.288,192.288 L237.402,192.288 L237.402,200.516 C236.877,200.325 236.33,200.165 235.763,200.029 L235.763,191.107 L235.107,191.107 C234.626,192.987 233.698,194.206 232.321,194.762 C230.944,195.32 228.167,195.599 223.994,195.599 L213.764,195.599 C214.792,193.086 217.709,190.529 222.518,187.927 L227.009,185.468 C234.177,181.579 237.763,176.78 237.763,171.076 C237.763,166.092 235.675,162.52 231.501,160.356 L231.304,160.619 C234.976,163.394 236.812,166.88 236.812,171.076 C236.812,173.875 235.987,176.36 234.336,178.535 C232.687,180.71 230.047,182.779 226.419,184.748 L221.896,187.174 C217.349,189.644 214.235,192.452 212.551,195.599 L210.454,195.599 C210.519,195.489 210.573,195.402 210.618,195.337 C212.802,191.489 215.732,188.562 219.404,186.55 L224.419,183.797 C231.523,179.862 235.075,175.372 235.075,170.321 C235.075,166.847 233.599,163.908 230.649,161.503 C227.699,159.099 224.081,157.897 219.796,157.897 C215.841,157.897 212.556,158.941 209.946,161.028 C207.333,163.114 206.028,165.754 206.028,168.945 C206.028,171.35 206.841,173.334 208.47,174.896 C210.097,176.459 212.168,177.239 214.683,177.239 C216.474,177.239 218,176.72 219.256,175.683 C220.512,174.645 221.284,173.273 221.568,171.568 L221.042,171.273 C219.796,172.584 218.454,173.239 217.01,173.239 C215.545,173.239 214.333,172.698 213.372,171.618 C212.41,170.536 211.928,169.187 211.928,167.568 C211.928,165.536 212.687,163.859 214.208,162.536 C215.726,161.214 217.655,160.551 219.995,160.551 C222.725,160.551 224.874,161.329 226.436,162.88 C227.999,164.433 228.78,166.564 228.78,169.273 C228.78,172.705 227.611,175.71 225.273,178.289 C224.091,179.557 221.776,181.272 218.322,183.436 C214.497,185.841 211.562,188.364 209.519,191.008 C207.475,193.654 206.06,196.747 205.274,200.287 L225.064,200.287 z M222.814,172.749 L223.6,173.043 C222.857,175.404 221.808,177.131 220.454,178.224 C219.097,179.316 217.327,179.862 215.142,179.862 C212.278,179.862 210.082,178.639 208.552,176.191 L208.815,176.191 L209.174,176.485 C210.399,177.557 211.405,178.268 212.191,178.617 C212.978,178.966 213.917,179.141 215.01,179.141 C219.381,179.141 221.982,177.009 222.814,172.749 M216.501,164.683 C215.375,165.646 214.814,166.826 214.814,168.225 C214.814,170.126 215.808,171.514 217.797,172.387 L217.797,172.814 C216.682,172.617 215.769,172.077 215.06,171.191 C214.349,170.306 213.995,169.273 213.995,168.092 C213.995,166.454 214.623,165.083 215.879,163.979 C217.135,162.876 218.704,162.322 220.583,162.322 C222.814,162.322 224.666,163.001 226.141,164.355 C227.617,165.711 228.355,167.416 228.355,169.469 C227.064,165.318 224.485,163.24 220.617,163.24 C219,163.24 217.627,163.722 216.501,164.683 M179.875,130.701 C179.875,129.608 180.387,129.041 181.416,128.996 C182.333,128.952 182.792,129.368 182.792,130.242 C182.792,130.395 182.771,130.548 182.727,130.701 C182.706,130.811 182.695,130.886 182.695,130.929 C182.714,131.279 183.01,131.455 183.58,131.455 C185.022,131.455 186.443,130.897 187.84,129.783 C189.239,128.668 190.289,127.258 190.989,125.553 L194.889,125.553 L194.889,163.549 L198.889,166.96 L184.759,166.96 L188.922,163.549 L188.922,134.7 C187.656,135.356 186.376,135.684 185.087,135.684 C183.076,135.684 181.525,134.864 180.432,133.225 L180.694,133.225 C182.027,134.319 183.469,134.864 185.022,134.864 C186.486,134.864 187.787,134.482 188.922,133.716 L188.922,131.684 C187.436,132.778 185.699,133.323 183.709,133.323 C182.617,133.323 181.705,133.072 180.972,132.57 C180.241,132.067 179.875,131.444 179.875,130.701 M37.113,54.914 C38.412,55.298 39.627,55.752 40.809,56.236 C40.519,56.438 40.233,56.63 39.94,56.833 C39.146,57.358 38.401,57.991 37.617,58.577 C36.846,59.183 36.039,59.754 35.295,60.431 C34.542,61.086 33.78,61.746 33.018,62.409 C32.254,63.069 31.562,63.82 30.833,64.522 C29.35,65.901 28.062,67.482 26.749,68.97 C26.067,69.694 25.538,70.543 24.941,71.311 C24.37,72.1 23.777,72.855 23.25,73.636 C22.759,74.444 22.276,75.237 21.804,76.015 C21.352,76.8 20.83,77.518 20.488,78.318 C19.762,79.885 18.985,81.315 18.442,82.71 C17.94,84.118 17.479,85.408 17.071,86.55 C16.683,87.695 16.52,88.751 16.295,89.585 C15.899,91.268 15.673,92.229 15.673,92.229 C15.673,92.229 16.003,91.299 16.583,89.67 C16.895,88.868 17.165,87.857 17.672,86.773 C18.193,85.701 18.783,84.491 19.423,83.171 C20.099,81.875 21.013,80.566 21.871,79.143 C22.276,78.414 22.863,77.772 23.379,77.068 C23.912,76.377 24.456,75.67 25.007,74.952 C25.593,74.259 26.243,73.6 26.868,72.911 C27.517,72.243 28.093,71.501 28.823,70.883 C30.23,69.605 31.595,68.255 33.146,67.105 C33.909,66.52 34.627,65.886 35.417,65.344 C36.205,64.8 36.987,64.259 37.765,63.723 C38.523,63.167 39.351,62.711 40.134,62.224 C40.933,61.756 41.685,61.243 42.486,60.833 C43.732,60.16 44.934,59.523 46.123,58.941 C47.159,59.587 48.146,60.267 49.074,60.988 C47.872,61.752 46.25,62.889 45.183,63.627 C44.547,64.047 43.535,64.849 42.905,65.317 C42.29,65.801 41.208,66.565 40.615,67.107 C40.012,67.631 38.963,68.468 38.354,69 C37.743,69.527 36.75,70.439 36.166,71.001 C34.979,72.104 33.007,74.031 31.958,75.224 C31.414,75.801 30.553,76.79 30.076,77.404 C29.619,78.036 28.721,78.939 28.298,79.565 C27.905,80.211 27.107,81.136 26.729,81.758 C26.368,82.387 25.559,83.237 25.286,83.878 C24.704,85.132 23.358,86.786 22.924,87.902 C22.523,89.028 21.553,90.485 21.227,91.4 C20.915,92.315 20.324,93.484 20.145,94.152 C19.828,95.498 19.253,96.544 19.253,96.544 C19.253,96.544 19.977,95.55 20.438,94.249 C20.688,93.607 21.414,92.523 21.819,91.655 C22.237,90.798 23.375,89.468 23.889,88.412 C24.43,87.376 25.943,85.904 26.629,84.766 C26.955,84.183 27.851,83.439 28.263,82.876 C28.688,82.322 29.562,81.52 30.003,80.945 C30.474,80.392 31.439,79.622 31.938,79.07 C32.458,78.536 33.383,77.691 33.966,77.195 C35.093,76.174 37.137,74.579 38.377,73.659 C38.987,73.19 40.095,72.397 40.727,71.962 C41.355,71.528 42.466,70.833 43.088,70.402 C43.695,69.957 44.825,69.34 45.452,68.95 C46.09,68.576 47.147,67.918 47.791,67.59 C48.708,67.094 50.231,66.266 51.108,65.829 C51.441,65.663 52.009,65.376 52.338,65.227 C52.6,65.096 52.899,64.952 53.215,64.8 C53.93,65.57 54.612,66.357 55.246,67.167 C55.074,67.277 54.917,67.377 54.793,67.457 C53.892,67.993 51.366,69.771 50.424,70.422 C49.949,70.737 48.667,71.707 48.195,72.058 C47.732,72.422 46.379,73.377 45.935,73.784 C45.481,74.176 44.147,75.193 43.69,75.59 C43.231,75.986 41.938,77.058 41.5,77.479 C40.61,78.306 37.956,80.584 37.167,81.477 C36.758,81.91 35.567,83.037 35.21,83.498 C34.868,83.971 33.664,85.024 33.348,85.494 C33.053,85.978 31.938,87.036 31.654,87.502 C31.383,87.974 30.288,88.958 30.083,89.438 C29.646,90.378 27.732,92.257 27.408,93.094 C27.105,93.939 25.625,95.564 25.38,96.249 C25.147,96.936 24.127,98.218 23.994,98.719 C23.756,99.729 22.834,100.859 22.834,100.859 C22.834,100.859 23.95,99.804 24.296,98.828 C24.484,98.346 25.663,97.19 25.966,96.54 C26.28,95.897 27.97,94.445 28.354,93.654 C28.759,92.876 30.875,91.244 31.39,90.389 C31.632,89.953 32.837,89.106 33.146,88.684 C33.466,88.269 34.667,87.37 35,86.939 C35.353,86.524 36.635,85.645 37.01,85.23 C37.399,84.829 38.674,83.881 39.111,83.51 C39.958,82.743 42.68,80.903 43.609,80.213 C44.067,79.861 45.562,78.905 46.036,78.581 C46.507,78.255 47.944,77.404 48.412,77.083 C48.868,76.749 50.299,75.968 50.77,75.676 C51.25,75.396 52.612,74.593 53.093,74.348 C53.783,73.977 55.716,72.925 56.375,72.599 C56.625,72.475 57.347,72.098 57.595,71.986 C57.764,71.901 58.001,71.784 58.263,71.654 C58.792,72.566 59.287,73.484 59.738,74.409 C58.879,74.96 56.25,76.814 55.667,77.216 C55.351,77.425 53.799,78.564 53.484,78.799 C53.176,79.041 51.55,80.189 51.253,80.46 C50.952,80.721 49.332,81.916 49.026,82.181 C48.722,82.444 47.125,83.675 46.833,83.957 C46.242,84.508 42.901,87.133 42.376,87.73 C42.104,88.02 40.583,89.285 40.345,89.591 C40.116,89.908 38.606,91.108 38.396,91.421 C38.2,91.745 36.77,92.936 36.581,93.246 C36.399,93.561 35.017,94.676 34.879,94.997 C34.588,95.624 32.106,97.729 31.89,98.287 C31.688,98.85 29.699,100.641 29.536,101.098 C29.379,101.556 27.933,102.953 27.842,103.287 C27.685,103.959 26.417,105.174 26.417,105.174 C26.417,105.174 27.923,104.058 28.154,103.406 C28.279,103.085 29.912,101.856 30.115,101.422 C30.323,100.993 32.563,99.424 32.819,98.896 C33.089,98.377 35.806,96.582 36.148,96.012 C36.312,95.72 37.825,94.773 38.03,94.491 C38.244,94.215 39.774,93.219 39.996,92.933 C40.23,92.655 41.832,91.666 42.081,91.39 C42.34,91.123 43.964,90.071 44.256,89.823 C44.819,89.313 48.222,87.227 48.842,86.767 C49.146,86.531 51.027,85.416 51.343,85.197 C51.659,84.982 53.424,83.978 53.734,83.762 C54.039,83.54 55.773,82.598 56.086,82.403 C56.407,82.216 58.077,81.27 58.397,81.106 C58.856,80.859 61.202,79.587 61.641,79.368 L61.798,79.287 C62.206,80.412 62.569,81.527 62.888,82.623 C61.961,83.272 61.061,83.906 60.91,84.01 C60.75,84.116 58.932,85.422 58.774,85.54 C58.621,85.661 56.721,87 56.573,87.135 C56.421,87.267 54.516,88.637 54.362,88.771 C54.209,88.903 52.314,90.294 52.168,90.435 C51.873,90.71 47.85,93.686 47.585,93.983 C47.451,94.128 45.599,95.531 45.479,95.686 C45.365,95.842 43.549,97.193 43.443,97.35 C43.346,97.51 41.602,98.834 41.506,98.989 C41.417,99.147 39.745,100.397 39.676,100.557 C39.532,100.871 36.48,103.2 36.372,103.479 C36.271,103.759 33.771,105.717 33.69,105.946 C33.612,106.175 31.736,107.688 31.69,107.854 C31.612,108.19 29.997,109.489 29.997,109.489 C29.997,109.489 31.896,108.311 32.012,107.986 C32.075,107.825 34.162,106.522 34.263,106.306 C34.367,106.091 37.157,104.402 37.286,104.137 C37.42,103.878 40.736,101.921 40.908,101.635 C40.99,101.491 42.812,100.44 42.915,100.299 C43.021,100.161 44.881,99.07 44.993,98.926 C45.109,98.788 47.027,97.688 47.152,97.549 C47.283,97.417 49.254,96.26 49.4,96.137 C49.683,95.882 53.765,93.55 54.075,93.32 C54.227,93.204 56.495,91.925 56.652,91.817 C56.811,91.709 58.902,90.549 59.059,90.443 C59.209,90.332 61.249,89.227 61.405,89.13 C61.564,89.037 63.542,87.945 63.703,87.863 C63.748,87.84 63.908,87.753 64.108,87.645 C64.399,89.116 64.616,90.496 64.782,91.773 L33.579,113.806 L65.227,96.668 C65.314,98.475 65.282,99.557 65.282,99.557 L15.51,131.326 C2.451,104.457 11.333,71.371 37.113,54.914 M280.906,134.406 L231.726,101.73 C231.726,101.73 231.712,100.647 231.834,98.841 L263.164,116.558 L232.37,93.957 C232.559,92.683 232.8,91.306 233.119,89.84 C233.41,90.005 233.621,90.124 233.684,90.16 C233.843,90.245 235.802,91.374 235.96,91.469 C236.115,91.57 238.164,92.731 238.314,92.844 C238.467,92.956 240.531,94.147 240.687,94.258 C240.842,94.369 242.896,95.58 243.046,95.7 C243.353,95.936 247.191,98.229 247.468,98.489 C247.612,98.616 249.602,99.828 249.728,99.964 C249.851,100.105 251.812,101.276 251.927,101.416 C252.036,101.563 253.896,102.695 254,102.837 C254.099,102.98 255.925,104.077 256.003,104.225 C256.17,104.512 259.482,106.549 259.612,106.812 C259.736,107.078 262.515,108.83 262.615,109.046 C262.712,109.265 264.817,110.629 264.876,110.791 C264.986,111.118 266.823,112.309 266.823,112.309 C266.823,112.309 265.152,110.921 265.079,110.583 C265.037,110.415 263.187,108.864 263.111,108.634 C263.035,108.404 260.53,106.372 260.435,106.088 C260.332,105.807 257.324,103.421 257.184,103.105 L256.353,102.355 L255.396,101.512 C255.303,101.356 253.572,99.993 253.477,99.83 C253.375,99.671 251.562,98.273 251.451,98.113 C251.334,97.958 249.493,96.508 249.359,96.362 C249.102,96.06 245.296,93.131 245.005,92.85 C244.862,92.706 243.102,91.361 242.952,91.227 C242.801,91.091 240.86,89.64 240.711,89.507 C240.566,89.368 238.673,87.98 238.521,87.856 C238.367,87.736 236.526,86.362 236.37,86.255 C236.221,86.149 235.342,85.505 234.431,84.841 C234.771,83.751 235.155,82.642 235.583,81.523 C236.771,82.175 238.612,83.218 239.071,83.478 C239.388,83.647 241.043,84.626 241.359,84.819 C241.669,85.02 243.411,86.007 243.709,86.236 C244.016,86.456 245.758,87.487 246.069,87.711 C246.38,87.934 248.098,89.004 248.398,89.244 C249.01,89.715 252.224,91.778 252.778,92.299 C253.065,92.552 254.699,93.65 254.954,93.922 C255.199,94.202 256.829,95.249 257.057,95.529 C257.273,95.82 258.8,96.851 259.008,97.131 C259.209,97.417 260.723,98.403 260.878,98.696 C261.211,99.273 263.918,101.132 264.179,101.654 C264.425,102.188 266.653,103.808 266.852,104.239 C267.047,104.676 268.689,105.954 268.807,106.278 C269.028,106.933 270.482,108.061 270.482,108.061 C270.482,108.061 269.177,106.777 269.031,106.102 C268.949,105.767 267.523,104.34 267.376,103.879 C267.22,103.418 265.234,101.57 265.043,101.003 C264.836,100.441 262.393,98.291 262.114,97.658 C262.051,97.504 261.435,96.962 261.35,96.816 C261.257,96.656 260.545,96.049 260.455,95.883 C260.271,95.568 258.855,94.344 258.664,94.019 C258.458,93.702 256.956,92.462 256.734,92.143 C256.501,91.832 254.99,90.529 254.723,90.236 C254.209,89.63 251.04,87.033 250.458,86.47 C250.17,86.185 248.682,84.984 248.381,84.715 C248.08,84.444 246.437,83.188 246.141,82.92 C245.848,82.644 244.23,81.456 243.926,81.208 C243.617,80.967 242.052,79.777 241.739,79.561 C241.169,79.152 238.609,77.277 237.732,76.686 C238.201,75.771 238.71,74.862 239.256,73.963 C239.543,74.112 239.801,74.246 239.983,74.341 C240.875,74.764 243.517,76.266 244.457,76.795 C244.934,77.049 246.284,77.878 246.758,78.168 C247.222,78.468 248.656,79.284 249.105,79.626 C249.566,79.958 250.985,80.83 251.451,81.165 C251.919,81.5 253.299,82.426 253.751,82.787 C254.667,83.494 257.256,85.328 258.088,86.11 C258.517,86.488 259.794,87.47 260.176,87.879 C260.544,88.299 261.842,89.221 262.187,89.643 C262.511,90.08 263.707,91.005 264.018,91.425 C264.319,91.854 265.521,92.73 265.755,93.17 C266.253,94.034 268.356,95.716 268.747,96.501 C269.116,97.299 270.79,98.786 271.089,99.435 C271.382,100.09 272.559,101.279 272.739,101.765 C273.068,102.748 274.143,103.812 274.143,103.812 C274.143,103.812 273.203,102.634 272.984,101.622 C272.859,101.118 271.862,99.814 271.639,99.124 C271.408,98.433 269.937,96.768 269.652,95.918 C269.341,95.073 267.461,93.16 267.042,92.21 C266.95,91.98 266.473,91.497 266.346,91.278 C266.208,91.039 265.65,90.501 265.512,90.252 C265.238,89.779 264.138,88.697 263.852,88.208 C263.544,87.732 262.349,86.651 262.015,86.171 C261.667,85.705 260.488,84.55 260.087,84.109 C259.316,83.202 256.785,80.936 255.911,80.091 C255.481,79.663 254.26,78.607 253.81,78.203 C253.36,77.797 252.015,76.735 251.568,76.334 C251.131,75.919 249.787,74.933 249.331,74.56 C248.866,74.201 247.58,73.191 247.109,72.867 C246.181,72.198 243.679,70.368 242.786,69.815 C242.668,69.736 242.521,69.636 242.358,69.528 C243.003,68.73 243.702,67.958 244.429,67.202 C244.755,67.363 245.064,67.522 245.331,67.661 C246.521,68.225 248.591,69.405 249.843,70.112 C250.478,70.452 251.525,71.129 252.158,71.516 C252.777,71.918 253.903,72.56 254.501,73.016 C255.116,73.458 256.212,74.172 256.833,74.619 C257.456,75.064 258.5,75.85 259.103,76.33 C260.327,77.273 262.289,78.877 263.396,79.92 C263.97,80.424 264.89,81.292 265.401,81.836 C265.89,82.396 266.858,83.194 267.316,83.755 C267.749,84.338 268.611,85.159 269.027,85.719 C269.428,86.291 270.317,87.054 270.63,87.643 C271.295,88.795 272.792,90.298 273.312,91.344 C273.806,92.41 274.925,93.762 275.326,94.628 C275.716,95.502 276.431,96.605 276.67,97.252 C277.109,98.563 277.802,99.563 277.802,99.563 C277.802,99.563 277.228,98.491 276.937,97.141 C276.771,96.469 276.199,95.289 275.903,94.368 C275.593,93.446 274.641,91.965 274.259,90.832 C273.846,89.708 272.531,88.029 271.972,86.764 C271.848,86.457 271.511,86.031 271.342,85.739 C271.158,85.42 270.754,84.953 270.571,84.621 C270.205,83.992 269.421,83.049 269.04,82.398 C268.629,81.764 267.743,80.84 267.297,80.2 C266.832,79.578 265.985,78.57 265.452,77.983 C264.423,76.772 262.528,74.838 261.363,73.712 C260.79,73.141 259.84,72.23 259.24,71.692 C258.639,71.15 257.591,70.281 256.998,69.747 C256.415,69.195 255.343,68.408 254.736,67.912 C254.116,67.432 253.107,66.604 252.478,66.172 C251.428,65.416 249.83,64.251 248.642,63.465 C249.583,62.76 250.583,62.099 251.63,61.473 C252.807,62.076 253.997,62.735 255.23,63.431 C256.025,63.855 256.766,64.382 257.556,64.864 C258.331,65.367 259.149,65.836 259.898,66.406 C260.666,66.959 261.439,67.514 262.215,68.071 C262.996,68.629 263.702,69.274 264.455,69.874 C265.984,71.051 267.322,72.426 268.707,73.73 C269.423,74.361 269.987,75.113 270.625,75.794 C271.237,76.494 271.874,77.167 272.447,77.869 C272.986,78.596 273.517,79.314 274.036,80.015 C274.539,80.728 275.114,81.381 275.505,82.116 C276.337,83.556 277.228,84.881 277.879,86.189 C278.496,87.521 279.062,88.741 279.564,89.822 C280.051,90.916 280.303,91.931 280.601,92.738 C281.15,94.378 281.462,95.314 281.462,95.314 C281.462,95.314 281.253,94.349 280.888,92.661 C280.68,91.82 280.537,90.764 280.167,89.612 C279.781,88.461 279.345,87.163 278.869,85.747 C278.351,84.341 277.601,82.898 276.902,81.317 C276.577,80.511 276.069,79.785 275.63,78.991 C275.171,78.205 274.705,77.403 274.228,76.587 C273.714,75.795 273.136,75.029 272.58,74.229 C271.998,73.451 271.483,72.591 270.816,71.857 C269.531,70.342 268.271,68.739 266.815,67.334 C266.098,66.619 265.419,65.854 264.669,65.181 C263.917,64.504 263.169,63.83 262.426,63.161 C261.697,62.469 260.9,61.884 260.14,61.264 C259.366,60.664 258.633,60.018 257.849,59.479 C257.559,59.27 257.278,59.071 256.992,58.866 C258.181,58.404 259.407,57.971 260.71,57.612 C286.184,74.539 294.458,107.783 280.906,134.406 M13.059,141.119 L125.431,69.391 C116.583,55.528 103.458,46.058 88.88,41.57 L88.88,22.296 C88.88,18.127 91.173,15.36 92.691,15.36 L201.045,15.36 C202.562,15.36 204.856,18.127 204.856,22.296 L204.856,43.869 C192.085,48.4 180.568,56.84 172.295,68.855 L282.095,144.462 C302.019,115.529 295.944,76.425 269.003,54.766 C270.299,54.247 271.455,53.339 272.265,52.072 C273.846,49.6 273.657,46.506 272.031,44.264 C272.521,43.925 272.955,43.487 273.295,42.955 C274.628,40.871 274.068,38.132 272.074,36.712 L274.29,33.596 C275.401,32.036 275.035,29.871 273.475,28.76 C271.912,27.65 269.749,28.016 268.639,29.577 L266.24,32.95 L266.052,32.831 C263.9,31.454 261.042,32.083 259.666,34.234 C259.324,34.767 259.108,35.343 259.004,35.928 C256.289,35.392 253.399,36.516 251.818,38.989 C250.755,40.651 250.495,42.593 250.927,44.37 C240.505,40.39 229.439,39.173 218.727,40.55 L218.727,22.296 C218.727,10.823 210.795,1.489 201.045,1.489 L92.691,1.489 C82.941,1.489 75.009,10.823 75.009,22.296 L75.009,38.859 C64.796,37.964 54.327,39.416 44.439,43.392 C45.186,41.414 45.027,39.122 43.801,37.204 C42.22,34.73 39.33,33.606 36.613,34.144 C36.512,33.557 36.294,32.98 35.955,32.447 C34.578,30.297 31.718,29.668 29.567,31.045 L29.563,31.047 L27.818,28.594 C26.708,27.031 24.542,26.669 22.982,27.778 C21.422,28.889 21.058,31.053 22.167,32.614 L23.715,34.792 C21.574,36.171 20.951,39.022 22.324,41.169 C22.665,41.702 23.097,42.141 23.586,42.479 C21.961,44.719 21.772,47.814 23.354,50.288 C24.35,51.842 25.863,52.86 27.523,53.273 C1.28,74.286 -5.438,112.139 13.059,141.119 M86.617,132.715 C87.601,132.043 88.595,131.384 89.603,130.744 L89.603,131.629 C88.71,132.23 87.711,132.586 86.617,132.715 M49.743,176.206 C51.041,175.98 52.22,175.496 53.268,174.725 L53.268,176.758 C52.131,177.523 50.83,177.904 49.367,177.904 C49.237,177.904 49.113,177.878 48.986,177.871 C49.233,177.313 49.486,176.758 49.743,176.206 M89.508,174.021 C91.083,176.917 91.87,181.785 91.87,188.626 C91.87,201.105 88.701,207.345 82.361,207.345 C75.28,207.345 71.741,201.072 71.741,188.527 C71.741,181.926 72.516,177.134 74.067,174.152 C75.62,171.168 78.122,169.676 81.576,169.676 C85.292,169.676 87.935,171.125 89.508,174.021 M95.57,161.463 L95.57,127.215 C96.113,126.917 96.661,126.627 97.208,126.339 L97.208,161.725 L101.472,166.675 L85.866,166.675 L86.472,167.418 C84.97,166.9 83.385,166.627 81.707,166.627 C76.745,166.627 72.768,168.567 69.772,172.446 C66.777,176.327 65.282,181.479 65.282,187.904 C65.282,194.57 66.828,199.924 69.92,203.968 C73.014,208.012 77.104,210.034 82.199,210.034 C87.203,210.034 91.16,208.165 94.066,204.427 C96.972,200.69 98.426,195.598 98.426,189.15 C98.426,181.327 96.459,175.403 92.525,171.381 C90.808,169.602 88.911,168.341 86.847,167.561 L103.373,167.561 L98.095,161.463 L98.095,125.871 C112.728,118.345 129.312,114.094 146.869,114.094 C164.783,114.094 181.678,118.525 196.529,126.339 L196.529,163.813 L200.791,168.762 L185.185,168.762 L185.907,169.648 L202.693,169.648 L197.415,163.549 L197.415,126.807 C231.001,144.881 253.885,180.373 253.885,221.112 C253.885,239.71 249.113,257.214 240.734,272.467 L240.748,272.291 C240.748,271.505 240.486,270.778 239.96,270.11 C239.437,269.445 238.834,269.067 238.158,268.979 L238.353,269.176 C239.185,270.073 239.682,270.663 239.846,270.948 C240.009,271.23 240.092,271.658 240.092,272.225 C240.092,273.056 239.834,273.745 239.322,274.292 C238.808,274.838 238.168,275.111 237.404,275.111 C236.812,275.111 236.092,274.903 235.24,274.488 L235.24,274.882 C236.136,275.405 236.989,275.669 237.797,275.669 C238.276,275.669 238.706,275.549 239.097,275.335 C237.931,277.311 236.707,279.249 235.419,281.142 L232.454,277.634 L232.454,272.225 L231.568,272.225 L231.568,277.93 L234.924,281.854 C234.68,282.208 234.439,282.563 234.19,282.913 L220.421,282.913 L221.175,283.799 L233.548,283.799 C227.402,292.274 220.044,299.816 211.733,306.17 C212.884,303.844 213.477,301.193 213.477,298.194 C213.477,295.571 212.924,293.145 211.822,290.916 C210.717,288.686 209.193,286.949 207.249,285.703 L207.249,285.931 C210.723,289.211 212.46,293.255 212.46,298.062 C212.46,301.857 211.548,305.05 209.741,307.656 C206.742,309.841 203.626,311.878 200.404,313.747 C198.844,314.102 197.166,314.291 195.347,314.291 C192.156,314.291 188.921,313.591 185.643,312.192 L185.643,312.487 C188.68,314.345 191.958,315.274 195.478,315.274 C196.324,315.274 197.134,315.221 197.929,315.142 C188.928,320.049 179.147,323.7 168.826,325.86 C169.218,325.543 169.606,325.203 169.988,324.841 C173.528,321.474 175.298,317.192 175.298,311.989 C175.298,309.934 174.91,307.838 174.134,305.695 C173.359,303.553 172.467,302.133 171.462,301.432 L171.659,301.794 C173.495,305.291 174.413,308.755 174.413,312.186 C174.413,316.994 172.73,320.994 169.364,324.185 C168.486,325.018 167.572,325.71 166.629,326.293 C163.023,326.968 159.353,327.466 155.63,327.767 C154.013,327.313 152.32,326.594 150.545,325.594 L150.545,325.791 L150.84,326.021 C151.792,326.786 152.775,327.408 153.79,327.899 C151.5,328.046 149.193,328.129 146.869,328.129 C138.685,328.129 130.715,327.202 123.056,325.455 L129.547,325.455 L129.482,324.997 C129.287,322.877 129.187,321.04 129.187,319.489 C129.187,312.582 130.564,306.637 133.318,301.654 L136.564,295.819 C139.077,291.251 140.542,286.857 140.958,282.639 L140.203,282.639 L140.138,283.033 C139.525,287.228 138.05,291.415 135.711,295.589 L132.664,301.063 C129.689,306.396 128.205,312.757 128.205,320.145 C128.205,321.653 128.281,323.127 128.433,324.57 L119.476,324.57 C73.694,312.438 39.852,270.655 39.852,221.112 C39.852,206.043 42.988,191.694 48.634,178.675 C48.893,178.707 49.157,178.725 49.432,178.725 C50.722,178.725 52,178.397 53.268,177.74 L53.268,206.591 L49.104,210.001 L63.233,210.001 L59.234,206.591 L59.234,168.594 L55.333,168.594 C54.632,170.299 53.583,171.709 52.186,172.823 C51.787,173.142 51.384,173.402 50.981,173.629 C58.958,157.588 70.837,143.819 85.376,133.576 C85.506,133.583 85.633,133.595 85.767,133.595 C87.056,133.595 88.335,133.269 89.603,132.612 L89.603,161.463 L85.439,164.873 L99.57,164.873 L95.57,161.463 z M146.869,334.968 C84.087,334.968 33.012,283.893 33.012,221.112 C33.012,183.053 51.786,149.299 80.556,128.615 C80.556,129.357 80.92,129.98 81.652,130.481 C82.029,130.739 82.457,130.929 82.929,131.054 C82.652,131.252 82.382,131.455 82.109,131.654 C81.861,131.493 81.613,131.334 81.375,131.136 L81.111,131.136 C81.306,131.427 81.519,131.683 81.742,131.922 C66.993,142.722 55.008,157.082 47.073,173.73 C47.115,173.582 47.137,173.432 47.137,173.283 C47.137,172.409 46.678,171.994 45.759,172.037 C44.731,172.081 44.218,172.649 44.218,173.74 C44.218,174.485 44.584,175.108 45.316,175.61 C45.537,175.76 45.775,175.881 46.026,175.987 C45.917,176.233 45.81,176.483 45.701,176.731 C45.479,176.583 45.254,176.443 45.039,176.266 L44.776,176.266 C45,176.603 45.249,176.896 45.512,177.162 C39.646,190.639 36.383,205.501 36.383,221.112 C36.383,282.034 85.947,331.596 146.869,331.596 C207.791,331.596 257.353,282.034 257.353,221.112 C257.353,160.19 207.791,110.627 146.869,110.627 C128.224,110.627 110.646,115.276 95.224,123.466 L91.668,123.466 C91.175,124.668 90.498,125.715 89.657,126.624 C88.314,127.44 86.993,128.289 85.687,129.16 C85.213,129.283 84.738,129.367 84.259,129.367 C83.691,129.367 83.396,129.192 83.375,128.841 C83.375,128.799 83.385,128.723 83.407,128.612 C83.451,128.461 83.472,128.307 83.472,128.154 C83.472,127.562 83.245,127.197 82.823,127.027 C101.083,114.557 123.138,107.255 146.869,107.255 C209.649,107.255 260.725,158.332 260.725,221.112 C260.725,283.893 209.649,334.968 146.869,334.968 M152.142,84.249 L149.967,64.001 L157.861,64.001 C161.91,64.001 165.19,60.72 165.19,56.673 C165.19,52.626 161.91,49.344 157.861,49.344 L135.875,49.344 C131.828,49.344 128.547,52.626 128.547,56.673 C128.547,60.72 131.828,64.001 135.875,64.001 L143.769,64.001 L141.595,84.249 C68.501,87.03 9.894,147.351 9.894,221.112 C9.894,268.203 33.783,309.817 70.076,334.479 C67.452,334.329 64.854,335.677 63.542,338.152 C62.168,340.746 62.61,343.813 64.415,345.915 C63.955,346.293 63.559,346.764 63.263,347.323 C62.188,349.354 62.788,351.813 64.562,353.159 L57.737,368.333 C55.753,368.804 54.272,370.578 54.272,372.706 C54.272,375.194 56.29,377.211 58.777,377.211 C61.266,377.211 63.283,375.194 63.283,372.706 C63.283,372.23 63.188,371.784 63.053,371.354 L72.815,357.293 C74.694,357.565 76.624,356.671 77.563,354.899 C77.858,354.34 78.027,353.748 78.082,353.154 C80.832,353.466 83.619,352.108 84.994,349.514 C86.043,347.531 86.029,345.27 85.161,343.376 C103.714,352.779 124.683,358.087 146.869,358.087 C168.505,358.087 188.982,353.036 207.194,344.063 C206.611,345.802 206.708,347.765 207.634,349.514 C209.008,352.108 211.795,353.466 214.546,353.154 C214.6,353.748 214.768,354.34 215.065,354.899 C216.132,356.913 218.475,357.803 220.573,357.123 L229.934,370.605 C229.798,371.035 229.706,371.483 229.706,371.958 C229.706,374.445 231.722,376.463 234.209,376.463 C236.698,376.463 238.714,374.445 238.714,371.958 C238.714,369.829 237.234,368.056 235.25,367.585 L228.562,352.714 C229.936,351.315 230.332,349.147 229.365,347.323 C229.069,346.764 228.673,346.293 228.213,345.915 C230.017,343.813 230.459,340.746 229.084,338.152 C227.956,336.019 225.87,334.72 223.635,334.498 C259.943,309.838 283.843,268.214 283.843,221.112 C283.843,147.351 225.236,87.03 152.142,84.249" fill="#0A0B09"/>
  </g>
</svg>
